<?xml version="1.0" encoding="UTF-8"?>
<!DOCTYPE svg PUBLIC "-//W3C//DTD SVG 1.1//EN" "http://www.w3.org/Graphics/SVG/1.1/DTD/svg11.dtd">
<!-- Creator: CorelDRAW 2021 (64 Bit) -->
<svg xmlns="http://www.w3.org/2000/svg" xml:space="preserve" width="489.925mm" height="489.925mm" version="1.1" style="shape-rendering:geometricPrecision; text-rendering:geometricPrecision; image-rendering:optimizeQuality; fill-rule:evenodd; clip-rule:evenodd"
viewBox="0 0 9415.51 9415.51"
 xmlns:xlink="http://www.w3.org/1999/xlink"
 xmlns:xodm="http://www.corel.com/coreldraw/odm/2003">
 <defs>
  <style type="text/css">
   <![CDATA[
    .fil0 {fill:#333333}
    .fil1 {fill:#AA33D7;fill-rule:nonzero}
    .fil2 {fill:white;fill-rule:nonzero}
    .fil3 {fill:url(#id0);fill-rule:nonzero}
   ]]>
  </style>
  <linearGradient id="id0" gradientUnits="userSpaceOnUse" x1="5026.63" y1="4894.98" x2="6634.52" y2="4225.57">
   <stop offset="0" style="stop-opacity:1; stop-color:#802CCA"/>
   <stop offset="1" style="stop-opacity:1; stop-color:#B034D9"/>
  </linearGradient>
 </defs>
 <g id="Camada_x0020_1">
  <metadata id="CorelCorpID_0Corel-Layer"/>
  <circle class="fil0" cx="4707.76" cy="4707.76" r="4555.21"/>
  <path class="fil1" d="M4707.76 0c1300,0 2476.94,526.94 3328.88,1378.88 851.94,851.94 1378.88,2028.88 1378.88,3328.88 0,1300 -526.94,2476.94 -1378.88,3328.88 -851.94,851.94 -2028.88,1378.88 -3328.88,1378.88 -1300,0 -2476.94,-526.94 -3328.88,-1378.88 -851.94,-851.94 -1378.88,-2028.88 -1378.88,-3328.88 0,-1300 526.94,-2476.94 1378.88,-3328.88 851.94,-851.94 2028.88,-1378.88 3328.88,-1378.88zm3113.17 1594.59c-796.72,-796.72 -1897.39,-1289.5 -3113.17,-1289.5 -1215.77,0 -2316.45,492.78 -3113.17,1289.5 -796.72,796.72 -1289.5,1897.39 -1289.5,3113.17 0,1215.78 492.78,2316.45 1289.5,3113.17 796.72,796.72 1897.39,1289.5 3113.17,1289.5 1215.78,0 2316.45,-492.78 3113.17,-1289.5 796.72,-796.72 1289.5,-1897.39 1289.5,-3113.17 0,-1215.78 -492.78,-2316.45 -1289.5,-3113.17z"/>
  <path class="fil2" d="M4607.1 6371.65l1083.35 -3572.27 135.42 -46.69 -508.99 0 107.4 37.36 -695.77 2428.21 -747.14 -2465.56 -508.99 0 -705.11 2465.56 -733.13 -2423.54 280.18 -42.03 -1130.05 0 312.86 51.37 1008.64 3180.02 140.09 387.58 952.6 -3189.36 868.55 2801.78 140.09 387.58zm1487.31 625.56c1433.58,-28.02 2068.64,-1045.99 2068.64,-2073.32 0,-910.58 -504.32,-1835.16 -1391.55,-2073.31 -350.22,-93.39 -663.09,-98.06 -1022.65,-98.06l-485.64 0 298.85 46.7 0 3520.9 -298.85 51.36 1120.71 0 -284.85 -46.69 0 -3441.51c51.37,-4.67 98.06,-9.34 144.76,-9.34 840.53,0 1307.49,975.95 1307.49,1965.92 0,980.62 -462.29,1975.25 -1461.59,2026.62l-130.75 4.67c-1942.56,0 -2521.6,-2255.43 -3983.19,-2255.43 -275.51,0 -579.03,79.38 -929.25,266.17 219.47,-102.73 415.6,-149.43 602.38,-149.43 1316.83,0 1979.92,2264.77 4356.76,2264.77l88.72 0z"/>
  <path class="fil3" d="M6397.94 6370.36l-298.86 -46.7 0 -3525.57 274.51 -22.35c-117.23,-21.86 -512.66,-28.61 -1110.37,-24.35l298.85 46.69 0 3521.21 -298.85 51.05 1134.72 0z"/>
 </g>
</svg>
